REM DIRINDEX 1\2,1\3,1\4,1\5
REM DIRNAME "folder01","folder02","folder03","folder04","folder05"
TITLE ""
FILE "1Q_t_1639-1648.mp3" MP3
  TRACK 01 AUDIO
    TITLE "0:"
    INDEX 01 00:00:00
  TRACK 02 AUDIO
    TITLE "2:cjc172_5906"
    INDEX 01 00:00:08
  TRACK 03 AUDIO
    TITLE "0:"
    INDEX 01 00:01:18
  TRACK 04 AUDIO
    TITLE "3:cjc172_5907"
    INDEX 01 00:01:63
  TRACK 05 AUDIO
    TITLE "0:"
    INDEX 01 00:02:74
  TRACK 06 AUDIO
    TITLE "4:cjc172_5908"
    INDEX 01 00:03:09
  TRACK 07 AUDIO
    TITLE "0:"
    INDEX 01 00:04:71
  TRACK 08 AUDIO
    TITLE "5:cjc172_5909"
    INDEX 01 00:05:04
  TRACK 09 AUDIO
    TITLE "0:"
    INDEX 01 00:09:11
  TRACK 10 AUDIO
    TITLE "3:cjc172_5910"
    INDEX 01 00:09:58
  TRACK 11 AUDIO
    TITLE "0:"
    INDEX 01 00:11:12
  TRACK 12 AUDIO
    TITLE "4:cjc172_5911"
    INDEX 01 00:11:20
  TRACK 13 AUDIO
    TITLE "0:"
    INDEX 01 00:13:07
  TRACK 14 AUDIO
    TITLE "5:cjc172_5912"
    INDEX 01 00:13:17
  TRACK 15 AUDIO
    TITLE "0:"
    INDEX 01 00:17:19
  TRACK 16 AUDIO
    TITLE "3:cjc172_5913"
    INDEX 01 00:17:66
  TRACK 17 AUDIO
    TITLE "0:"
    INDEX 01 00:18:73
  TRACK 18 AUDIO
    TITLE "4:cjc172_5914"
    INDEX 01 00:19:10
  TRACK 19 AUDIO
    TITLE "0:"
    INDEX 01 00:20:56
  TRACK 20 AUDIO
    TITLE "5:cjc172_5915"
    INDEX 01 00:20:66
  TRACK 21 AUDIO
    TITLE "0:"
    INDEX 01 00:26:41
  TRACK 22 AUDIO
    TITLE "3:cjc172_5916"
    INDEX 01 00:27:15
  TRACK 23 AUDIO
    TITLE "0:"
    INDEX 01 00:28:34
  TRACK 24 AUDIO
    TITLE "4:cjc172_5917"
    INDEX 01 00:28:48
  TRACK 25 AUDIO
    TITLE "0:"
    INDEX 01 00:31:38
  TRACK 26 AUDIO
    TITLE "5:cjc172_5918"
    INDEX 01 00:31:48
  TRACK 27 AUDIO
    TITLE "0:"
    INDEX 01 00:36:55
  TRACK 28 AUDIO
    TITLE "3:cjc172_5919"
    INDEX 01 00:37:25
  TRACK 29 AUDIO
    TITLE "0:"
    INDEX 01 00:38:25
  TRACK 30 AUDIO
    TITLE "4:cjc172_5920"
    INDEX 01 00:38:34
  TRACK 31 AUDIO
    TITLE "0:"
    INDEX 01 00:39:57
  TRACK 32 AUDIO
    TITLE "5:cjc172_5921"
    INDEX 01 00:39:65
  TRACK 33 AUDIO
    TITLE "0:"
    INDEX 01 00:44:12
  TRACK 34 AUDIO
    TITLE "3:cjc172_5922"
    INDEX 01 00:44:57
  TRACK 35 AUDIO
    TITLE "0:"
    INDEX 01 00:45:74
  TRACK 36 AUDIO
    TITLE "4:cjc172_5923"
    INDEX 01 00:46:08
  TRACK 37 AUDIO
    TITLE "0:"
    INDEX 01 00:47:27
  TRACK 38 AUDIO
    TITLE "5:cjc172_5924"
    INDEX 01 00:47:35
  TRACK 39 AUDIO
    TITLE "0:"
    INDEX 01 00:52:54
  TRACK 40 AUDIO
    TITLE "3:cjc172_5925"
    INDEX 01 00:53:28
  TRACK 41 AUDIO
    TITLE "0:"
    INDEX 01 00:54:35
  TRACK 42 AUDIO
    TITLE "4:cjc172_5926"
    INDEX 01 00:54:45
  TRACK 43 AUDIO
    TITLE "0:"
    INDEX 01 00:55:60
  TRACK 44 AUDIO
    TITLE "5:cjc172_5927"
    INDEX 01 00:55:70
  TRACK 45 AUDIO
    TITLE "0:"
    INDEX 01 01:00:69
  TRACK 46 AUDIO
    TITLE "3:cjc172_5928"
    INDEX 01 01:01:41
  TRACK 47 AUDIO
    TITLE "0:"
    INDEX 01 01:02:54
  TRACK 48 AUDIO
    TITLE "4:cjc172_5929"
    INDEX 01 01:02:64
  TRACK 49 AUDIO
    TITLE "0:"
    INDEX 01 01:05:18
  TRACK 50 AUDIO
    TITLE "5:cjc172_5930"
    INDEX 01 01:05:25
  TRACK 51 AUDIO
    TITLE "0:"
    INDEX 01 01:11:03
  TRACK 52 AUDIO
    TITLE "3:cjc172_5931"
    INDEX 01 01:11:52
  TRACK 53 AUDIO
    TITLE "0:"
    INDEX 01 01:12:45
  TRACK 54 AUDIO
    TITLE "4:cjc172_5932"
    INDEX 01 01:12:53
  TRACK 55 AUDIO
    TITLE "0:"
    INDEX 01 01:14:56
  TRACK 56 AUDIO
    TITLE "5:cjc172_5933"
    INDEX 01 01:14:75
  TRACK 57 AUDIO
    TITLE "0:"
    INDEX 01 01:19:18
  TRACK 58 AUDIO
    TITLE "3:cjc172_5934"
    INDEX 01 01:19:63
  TRACK 59 AUDIO
    TITLE "0:"
    INDEX 01 01:21:15
  TRACK 60 AUDIO
    TITLE "4:cjc172_5935"
    INDEX 01 01:21:22
  TRACK 61 AUDIO
    TITLE "0:"
    INDEX 01 01:22:16
  TRACK 62 AUDIO
    TITLE "5:cjc172_5936"
    INDEX 01 01:22:26
  TRACK 63 AUDIO
    TITLE "0:"
    INDEX 01 01:28:11
